<?xml version="1.0" standalone="no"?>
<!DOCTYPE svg PUBLIC "-//W3C//DTD SVG 20010904//EN"
 "http://www.w3.org/TR/2001/REC-SVG-20010904/DTD/svg10.dtd">
<svg version="1.0" xmlns="http://www.w3.org/2000/svg"
 width="700.000000pt" height="700.000000pt" viewBox="0 0 700.000000 700.000000"
 preserveAspectRatio="xMidYMid meet">
<metadata>
Created by potrace 1.11, written by Peter Selinger 2001-2013
</metadata>
<g transform="translate(0.000000,700.000000) scale(0.100000,-0.100000)"
fill="#000000" stroke="none">
<path d="M1059 6972 l-26 -3 1 -1652 1 -1652 333 -1 332 -1 0 181 c1 100 1
325 1 501 l0 320 268 273 c147 149 270 272 273 272 4 0 33 -46 65 -102 33 -57
191 -328 353 -603 161 -275 338 -577 393 -671 l99 -170 429 0 c236 -1 429 1
429 2 0 8 -68 115 -168 268 -62 93 -112 173 -112 178 0 4 -4 8 -10 8 -5 0 -10
4 -10 9 0 6 -57 97 -126 203 -70 106 -142 218 -162 248 -20 30 -65 100 -101
156 -36 55 -70 108 -76 117 -5 9 -59 92 -120 184 -60 93 -161 247 -223 343
-63 96 -126 193 -141 215 -39 59 -55 94 -47 102 26 26 583 600 866 894 124
128 256 264 293 302 37 38 66 72 63 75 -3 2 -203 5 -445 5 l-439 0 -64 -69
c-34 -37 -70 -75 -78 -84 -8 -9 -55 -61 -105 -115 -49 -55 -97 -106 -105 -115
-19 -21 -266 -289 -390 -424 -30 -33 -64 -70 -75 -81 -11 -12 -60 -66 -110
-120 -49 -54 -101 -110 -115 -125 -14 -15 -65 -71 -115 -125 -49 -54 -113
-123 -142 -154 l-52 -56 0 729 c0 400 -2 731 -5 734 -6 5 -593 9 -637 4z"/>
<path d="M5328 6972 l-28 -3 -1 -1132 c0 -623 -2 -1159 -5 -1192 -7 -98 -32
-229 -52 -276 -54 -125 -160 -184 -337 -188 -131 -3 -222 33 -299 119 -70 78
-103 182 -121 384 -6 68 -10 76 -33 72 -9 -2 -48 -7 -86 -11 -38 -4 -79 -8
-90 -10 -12 -2 -50 -6 -86 -10 -36 -4 -78 -8 -95 -11 -16 -2 -59 -7 -95 -10
-36 -4 -72 -8 -80 -10 -8 -1 -28 -3 -44 -3 l-29 -1 7 -102 c22 -335 108 -555
288 -730 106 -104 282 -193 437 -223 156 -30 382 -35 531 -11 14 2 45 7 70 10
25 4 83 20 130 36 309 103 538 350 606 654 18 76 34 185 41 271 4 55 8 612 8
1239 l0 1138 -305 2 c-168 0 -317 0 -332 -2z"/>
<path d="M3289 3446 c-2 -2 -31 -7 -64 -10 -63 -7 -94 -11 -135 -20 -14 -3
-41 -9 -60 -12 -55 -10 -198 -63 -271 -100 -72 -36 -179 -113 -230 -165 -123
-126 -213 -298 -244 -464 -11 -58 -14 -222 -4 -264 4 -20 9 -52 12 -71 17
-125 118 -308 234 -426 83 -85 127 -116 250 -181 161 -84 295 -130 623 -215
468 -120 591 -164 679 -243 75 -68 111 -188 90 -303 -22 -117 -124 -239 -253
-302 -118 -58 -220 -78 -396 -75 -239 4 -378 53 -505 180 -99 99 -152 206
-204 411 l-11 40 -64 -7 c-35 -4 -95 -10 -132 -13 -87 -6 -179 -15 -224 -21
-19 -3 -66 -8 -105 -11 -70 -7 -105 -10 -116 -13 -5 -1 12 -123 26 -181 3 -14
8 -36 11 -50 3 -14 16 -58 30 -99 155 -463 492 -723 1019 -786 28 -4 61 -8 75
-11 33 -5 355 -5 400 0 19 3 62 7 95 10 33 4 73 9 90 12 167 31 283 66 395
121 341 165 554 519 545 905 -2 64 -13 171 -20 198 -2 8 -7 30 -10 48 -16 96
-88 240 -172 344 -138 173 -328 283 -671 388 -103 31 -350 96 -404 105 -80 14
-374 111 -454 150 -107 52 -166 110 -188 185 -15 50 -13 130 4 175 16 42 101
119 163 149 110 52 197 68 362 70 83 0 166 -2 185 -6 87 -16 109 -23 166 -48
85 -38 132 -80 185 -162 31 -48 72 -156 85 -222 l6 -36 92 4 c50 3 163 8 251
12 88 4 183 8 210 9 28 2 65 3 84 4 l33 1 -6 66 c-18 188 -62 322 -151 459
-166 257 -431 407 -810 459 -88 12 -486 22 -496 12z"/>
</g>
</svg>
