<?xml version="1.0" encoding="utf-8"?>
<!-- Generator: Adobe Illustrator 21.1.0, SVG Export Plug-In . SVG Version: 6.00 Build 0)  -->
<svg version="1.1" id="logo" xmlns="http://www.w3.org/2000/svg" xmlns:xlink="http://www.w3.org/1999/xlink" x="0px" y="0px"
	 viewBox="0 0 300 300" style="enable-background:new 0 0 300 300;" xml:space="preserve">
<style type="text/css">
	.st0{fill:#FFFFFF;}
</style>
<title>Logo KJS</title>
<polygon class="st0" points="135.2,143.1 172.1,143.1 116.1,56.9 169.2,2 130.9,2 73.3,64.6 73.3,2 44.9,2 44.9,143.1 73.3,143.1 
	73.3,100.4 96.4,76.9 "/>
<path class="st0" d="M226.8,2v91.1c0,11.4-1.3,18.9-3.9,22.6c-2.6,3.6-7.1,5.4-13.5,5.4c-6.3,0-11-2.5-14-7.6
	c-2.1-3.3-3.2-9-3.6-17.1l-26.8,3.1c0.1,15.1,3.9,26.5,11.4,34.3c7.5,7.8,18.2,11.7,32.1,11.7c11.9,0,21.4-2.5,28.7-7.5
	c7.1-4.7,12.3-11.7,15-19.8c2.1-6.3,3.1-15.3,3.1-26.9V2H226.8z"/>
<path class="st0" d="M186.1,217.6c-6.7-3.5-16.9-6.9-30.7-10.1c-13.8-3.3-22.6-6.4-26.2-9.5c-2.7-2-4.2-5.2-4.2-8.6
	c-0.1-3.5,1.6-6.8,4.5-8.8c4.7-3.4,11.1-5.1,19.4-5.1c8,0,14,1.6,18,4.8s6.6,8.4,7.9,15.7l28.5-1.2c-0.4-13-5.1-23.3-14.1-31.1
	c-9-7.8-22.3-11.6-40-11.6c-10.8,0-20.1,1.6-27.8,4.9c-7.2,2.9-13.3,7.9-17.6,14.3c-4,6-6.1,13-6.1,20.2c0,11.2,4.3,20.6,13,28.4
	c6.2,5.5,16.9,10.2,32.1,14c11.9,3,19.5,5,22.8,6.2c4.9,1.7,8.3,3.8,10.2,6.1c2,2.4,3,5.4,2.9,8.5c0,5.2-2.3,9.7-7,13.6
	c-4.7,3.9-11.6,5.8-20.7,5.8c-8.7,0-15.5-2.2-20.6-6.5c-5.1-4.4-8.5-11.2-10.2-20.5l-27.7,2.6c1.9,15.8,7.6,27.8,17.1,36
	c9.6,8.2,23.3,12.4,41.1,12.4c12.3,0,22.5-1.7,30.7-5.1c7.8-3.1,14.5-8.6,19.1-15.7c4.4-6.8,6.7-14.6,6.7-22.7
	c0-8.9-1.9-16.4-5.6-22.5C197.9,225.8,192.5,220.9,186.1,217.6z"/>
</svg>
