<svg id="logo" data-name="Layer 1" xmlns="http://www.w3.org/2000/svg" viewBox="0 0 300 300"><title>Logo KJS</title><polygon points="135.22 143.05 172.06 143.05 116.07 56.94 169.18 2 130.88 2 73.35 64.64 73.35 2 44.87 2 44.87 143.05 73.35 143.05 73.35 100.43 96.44 76.86 135.22 143.05"/><path d="M226.75,2V93.12q0,17.13-3.94,22.56t-13.47,5.44q-9.43,0-14-7.6-3.08-5-3.56-17.13l-26.84,3.08q.1,22.61,11.35,34.3t32.14,11.69q17.8,0,28.67-7.46a38.15,38.15,0,0,0,15-19.77q3.08-9.43,3.08-26.94V2Z"/><path d="M186.13,217.61q-10-5.24-30.74-10.15T129.22,198a10.83,10.83,0,0,1-4.23-8.56,10.28,10.28,0,0,1,4.52-8.76q7-5.1,19.44-5.1,12,0,18,4.76T174.82,196l28.48-1.25q-.67-19.44-14.1-31.08t-40-11.64q-16.26,0-27.76,4.91a38.25,38.25,0,0,0-17.61,14.29,36.26,36.26,0,0,0-6.11,20.16q0,16.74,13,28.38,9.24,8.27,32.14,14,17.8,4.43,22.8,6.16,7.31,2.6,10.25,6.11a12.84,12.84,0,0,1,2.93,8.52q0,7.79-7,13.61t-20.73,5.82q-13,0-20.64-6.54t-10.15-20.49L92.66,249.6q2.79,23.67,17.13,36T150.87,298q18.38,0,30.69-5.15a40.36,40.36,0,0,0,19.05-15.73,41.54,41.54,0,0,0,6.74-22.71q0-13.37-5.63-22.47A39.62,39.62,0,0,0,186.13,217.61Z"/></svg>
