<svg enable-background="new 0 0 300 300" viewBox="0 0 300 300" xmlns="http://www.w3.org/2000/svg"><g fill="#fff"><path d="m135.2 143.1h36.9l-56-86.2 53.1-54.9h-38.3l-57.6 62.6v-62.6h-28.4v141.1h28.4v-42.7l23.1-23.5z"/><path d="m226.8 2v91.1c0 11.4-1.3 18.9-3.9 22.6-2.6 3.6-7.1 5.4-13.5 5.4-6.3 0-11-2.5-14-7.6-2.1-3.3-3.2-9-3.6-17.1l-26.8 3.1c.1 15.1 3.9 26.5 11.4 34.3s18.2 11.7 32.1 11.7c11.9 0 21.4-2.5 28.7-7.5 7.1-4.7 12.3-11.7 15-19.8 2.1-6.3 3.1-15.3 3.1-26.9v-89.3z"/><path d="m186.1 217.6c-6.7-3.5-16.9-6.9-30.7-10.1-13.8-3.3-22.6-6.4-26.2-9.5-2.7-2-4.2-5.2-4.2-8.6-.1-3.5 1.6-6.8 4.5-8.8 4.7-3.4 11.1-5.1 19.4-5.1 8 0 14 1.6 18 4.8s6.6 8.4 7.9 15.7l28.5-1.2c-.4-13-5.1-23.3-14.1-31.1s-22.3-11.6-40-11.6c-10.8 0-20.1 1.6-27.8 4.9-7.2 2.9-13.3 7.9-17.6 14.3-4 6-6.1 13-6.1 20.2 0 11.2 4.3 20.6 13 28.4 6.2 5.5 16.9 10.2 32.1 14 11.9 3 19.5 5 22.8 6.2 4.9 1.7 8.3 3.8 10.2 6.1 2 2.4 3 5.4 2.9 8.5 0 5.2-2.3 9.7-7 13.6s-11.6 5.8-20.7 5.8c-8.7 0-15.5-2.2-20.6-6.5-5.1-4.4-8.5-11.2-10.2-20.5l-27.7 2.6c1.9 15.8 7.6 27.8 17.1 36 9.6 8.2 23.3 12.4 41.1 12.4 12.3 0 22.5-1.7 30.7-5.1 7.8-3.1 14.5-8.6 19.1-15.7 4.4-6.8 6.7-14.6 6.7-22.7 0-8.9-1.9-16.4-5.6-22.5-3.7-6.3-9.1-11.2-15.5-14.5z"/></g></svg>